<?xml version="1.0" encoding="UTF-8"?>
<svg id="Layer_1-_Karla_Bold_-40" xmlns="http://www.w3.org/2000/svg" version="1.1" viewBox="0 0 1244.56 175">
  <!-- Generator: Adobe Illustrator 29.8.1, SVG Export Plug-In . SVG Version: 2.1.1 Build 2)  -->
  <defs>
    <style>
      .st0 {
        fill: #0080d4;
      }

      .st1 {
        fill: #808182;
      }

      .st2 {
        fill: #212225;
      }
    </style>
  </defs>
  <path class="st0" d="M190,56.48L107.23,2.84c-6.25-3.76-14.07-3.76-20.32,0L6.56,54.93c-5.74,3.31-7.71,10.65-4.39,16.39,1,1.74,2.42,3.19,4.13,4.24l80.54,54.91c6.2,3.93,14.09,4.03,20.38.25l82.78-53.65c5.69-3.26,7.65-10.52,4.39-16.2-1.05-1.83-2.56-3.34-4.39-4.39ZM99,117.93c-1.12.48-2.39.46-3.5-.05L18.5,65.39,95.2,15.63c1.19-.51,2.54-.51,3.73,0l78.91,51.15-78.84,51.15Z"/>
  <path class="st0" d="M86.91,44.32l-43.56,28.24,13.65,9.33,38.2-24.78c1.19-.51,2.54-.51,3.73,0l39.38,25.52,14-9.06-45.08-29.25c-6.25-3.75-14.07-3.75-20.32,0Z"/>
  <path class="st0" d="M190,98l-8.62-5.59-14,9.06,10.53,6.83-78.98,51.11c-1.12.49-2.38.49-3.5,0L18.43,106.91l10-6.47-13.63-9.37-8.24,5.34c-5.73,3.33-7.67,10.68-4.34,16.41.99,1.71,2.4,3.15,4.08,4.18l80.54,55c6.2,3.94,14.09,4.03,20.38.24l82.78-53.69c5.67-3.28,7.61-10.54,4.33-16.22-1.04-1.8-2.53-3.29-4.33-4.33Z"/>
  <path class="st2" d="M291.65,67.22c-4.61-7.33-11.48-11-20.62-11-8.8-.15-17.2,3.67-22.88,10.39-6.22,7.13-9.33,16.41-9.33,27.85s3.26,20.87,9.78,28.3c5.84,6.9,14.46,10.82,23.49,10.68,9.33,0,16.26-4.46,20.77-13.39l2.14,11.3h14.6V28.09h-17.95v39.13ZM291.65,98.98c.14,4.95-1.76,9.75-5.26,13.25-6.08,6.51-16.29,6.86-22.8.78-.63-.59-1.21-1.23-1.74-1.91-3.41-4.16-5.12-9.65-5.12-16.48s1.67-12.27,5-16.33c2.99-3.9,7.65-6.16,12.56-6.1,5.02,0,9.04,1.5,12.05,4.51,3.35,3.42,5.24,8.01,5.26,12.8,0,0,.05,9.48.05,9.48Z"/>
  <path class="st2" d="M366.92,56.23c-9.64,0-16.97,4.62-22,13.85V28.08h-17.74v103.27h17.76v-33.87c.2-8.43,1.98-14.77,5.34-19,3.36-4.23,7.4-6.34,12.12-6.32,4.72,0,8.39,1.38,11,4.14s3.91,6.86,3.9,12.3v42.75h17.76v-42.75c0-9.74-2.28-17.57-6.85-23.49s-11.66-8.88-21.29-8.88Z"/>
  <rect class="st2" x="412.07" y="58.04" width="17.76" height="73.31"/>
  <path class="st2" d="M421,24.17c-3.51,0-6.21.93-8.12,2.79-1.97,2.02-3.01,4.78-2.86,7.6-.15,2.82.88,5.58,2.86,7.6,1.9,1.86,4.61,2.78,8.12,2.78s6.1-.92,8.06-2.78c2.01-2,3.08-4.77,2.93-7.6.12-2.83-.97-5.58-2.99-7.56-1.95-1.9-4.63-2.83-8-2.83Z"/>
  <path class="st2" d="M492.45,92.06l-17.31-6.47c-5.92-1.71-8.88-4.32-8.88-7.83,0-2,1.08-3.78,3.24-5.35,2.15-1.55,5.19-2.33,9.1-2.33s6.93.71,9,2.11c2,1.24,3.29,3.37,3.46,5.72h16.71c-.15-6.1-3.05-11.8-7.9-15.51-5.07-4.11-12.3-6.16-21.68-6.17-9.38,0-16.84,1.88-22.39,5.65-5.57,3.76-8.35,8.76-8.36,15,0,9.33,5.92,16.06,17.77,20.17l16,5.71c2.54.68,4.93,1.81,7.08,3.32,1.53,1.25,2.37,3.15,2.26,5.12,0,2.2-1.23,4.14-3.69,5.79-2.82,1.75-6.1,2.62-9.41,2.48-9.93,0-14.99-3.46-15.2-10.38h-16.61c.1,7.73,3.1,13.73,9,18s13.73,6.4,23.48,6.39c9.74,0,17.57-2.31,23.48-6.92,5.73-4.42,8.6-9.64,8.59-15.65.16-4.32-1.51-8.5-4.6-11.52-3.06-2.98-7.44-5.42-13.14-7.33h0Z"/>
  <path class="st2" d="M542.13,115.09v-3.61c-.06-2.48.96-4.87,2.78-6.55,1.86-1.75,4.89-3.19,9.11-4.29l15.8-3.92c8.83-2.2,15.22-5.33,19.19-9.4s5.97-9.81,6-17.24c0-7.42-3.06-13.64-9.18-18.66-6.32-5.22-14.4-7.83-24.24-7.83-10.53,0-18.95,2.26-25.28,6.77-6.66,4.82-10.1,11.75-10.31,20.78h19.72c1-8,6.57-12,16.71-12,4.61,0,8.22,1.1,10.84,3.31,2.51,2.01,3.95,5.07,3.91,8.29.05,3.1-1.17,6.08-3.37,8.26-2.26,2.26-6.15,4.09-11.67,5.49l-14.29,3.51c-8.13,2-14.05,5.11-17.76,9.33-3.82,4.51-5.73,10.93-5.73,19.26v14.76h71.2v-16.26h-53.43Z"/>
  <g>
    <path class="st1" d="M625.86,131.39V58.37h15.51l1.96,12.5c2.41-4.87,5.6-8.52,9.56-10.95s8.51-3.65,13.63-3.65c6.02,0,11.05,1.34,15.09,4.03,4.04,2.69,7.08,6.46,9.11,11.33,2.03,4.87,3.05,10.54,3.05,17.01v42.76h-17.77v-42.76c0-5.42-1.31-9.51-3.91-12.27-2.61-2.76-6.02-4.14-10.24-4.14-3.56,0-6.71.98-9.45,2.94s-4.88,4.91-6.44,8.85c-1.56,3.94-2.33,8.85-2.33,14.72v32.67h-17.77v-.02ZM725.08,131.39v-42.76c0-5.42-1.31-9.51-3.91-12.27-2.61-2.76-6.02-4.14-10.24-4.14-5.32,0-9.51,2.16-12.57,6.47-3.06,4.32-4.59,10.84-4.59,19.57h-7.38c0-7.68.71-14.19,2.14-19.53,1.43-5.34,3.46-9.66,6.1-12.95,2.63-3.29,5.73-5.7,9.3-7.23,3.56-1.53,7.5-2.3,11.82-2.3,5.97,0,10.98,1.34,15.02,4.03,4.04,2.69,7.09,6.46,9.15,11.33s3.09,10.54,3.09,17.01v42.76h-17.93Z"/>
    <path class="st1" d="M791.47,133.5c-6.68,0-12.71-1.43-18.1-4.29-5.4-2.86-9.67-7.14-12.84-12.84-3.16-5.7-4.74-12.83-4.74-21.42s1.58-15.96,4.74-21.68,7.44-9.99,12.84-12.8c5.39-2.81,11.43-4.22,18.1-4.22s12.53,1.41,17.88,4.22c5.34,2.81,9.6,7.08,12.76,12.8,3.16,5.72,4.74,12.95,4.74,21.68s-1.58,15.72-4.74,21.42-7.42,9.97-12.76,12.84c-5.34,2.86-11.3,4.29-17.88,4.29ZM790.87,117.99c3.51,0,6.64-.87,9.37-2.6s4.89-4.3,6.47-7.72c1.58-3.41,2.37-7.65,2.37-12.72,0-7.73-1.52-13.55-4.55-17.46-3.04-3.91-7.19-5.87-12.46-5.87-3.56,0-6.73.87-9.48,2.6-2.76,1.73-4.93,4.33-6.51,7.79s-2.37,7.78-2.37,12.95c0,7.63,1.54,13.38,4.63,17.24,3.09,3.87,7.26,5.8,12.53,5.8h0Z"/>
    <path class="st1" d="M868.86,133.5c-6.12,0-11.71-1.62-16.75-4.86-5.04-3.24-9.06-7.78-12.04-13.62-2.99-5.85-4.48-12.68-4.48-20.51s1.44-14.47,4.33-20.21c2.89-5.75,6.75-10.19,11.59-13.32,4.84-3.14,10.23-4.7,16.15-4.7,5.42,0,10.11,1.29,14.08,3.88,3.96,2.59,7,6.41,9.11,11.48,2.11,5.07,3.16,11.29,3.16,18.67h-5.57c0-3.81-.78-7.06-2.33-9.75-1.56-2.68-3.6-4.74-6.13-6.17-2.54-1.43-5.28-2.15-8.24-2.15-3.56,0-6.71.93-9.45,2.79s-4.88,4.45-6.44,7.79c-1.56,3.34-2.33,7.24-2.33,11.71s.78,8.63,2.33,12.04,3.7,6.07,6.44,7.98c2.73,1.91,5.83,2.86,9.3,2.86,2.81,0,5.51-.76,8.09-2.3,2.58-1.53,4.69-3.68,6.32-6.44s2.45-5.97,2.45-9.64h5.57c0,7.68-1.14,14.07-3.42,19.16-2.28,5.09-5.33,8.92-9.15,11.48-3.81,2.56-8.01,3.84-12.57,3.84h-.02ZM891.74,131.39l-3.31-18.07V28.11h17.92v103.28h-14.61Z"/>
    <path class="st1" d="M955.58,133.5c-6.22,0-11.92-1.61-17.09-4.82-5.17-3.21-9.31-7.72-12.42-13.51-3.11-5.8-4.67-12.58-4.67-20.36s1.54-14.93,4.63-20.7c3.09-5.77,7.21-10.19,12.38-13.25s10.89-4.59,17.16-4.59c5.82,0,10.85,1.17,15.09,3.5,4.24,2.33,7.65,5.5,10.24,9.48s4.33,8.5,5.23,13.51c.9,5.02.95,10.19.15,15.51h-50.74v-9.64h38.17l-3.46,2.26c.15-2.36.04-4.74-.34-7.15s-1.09-4.62-2.15-6.62c-1.05-2.01-2.55-3.62-4.48-4.86-1.93-1.23-4.4-1.84-7.42-1.84-3.61,0-6.67.9-9.18,2.71s-4.42,4.27-5.72,7.38c-1.31,3.11-1.96,6.62-1.96,10.54v7.08c0,4.12.61,7.75,1.84,10.92,1.23,3.16,3.06,5.65,5.5,7.45,2.43,1.81,5.51,2.71,9.22,2.71,3.46,0,6.37-.8,8.73-2.41s3.86-4.01,4.52-7.23h17.92c-.75,4.72-2.52,8.87-5.31,12.46s-6.39,6.4-10.8,8.43c-4.42,2.03-9.44,3.05-15.06,3.05h.02Z"/>
    <path class="st1" d="M1002.1,131.39V28.11h17.77v103.28h-17.77Z"/>
    <path class="st1" d="M1052.31,44.97c-3.46,0-6.16-.92-8.09-2.75-1.93-1.83-2.9-4.38-2.9-7.64s.97-5.68,2.9-7.57c1.93-1.88,4.63-2.82,8.09-2.82s6.1.94,8.05,2.82c1.96,1.88,2.94,4.4,2.94,7.57s-.98,5.81-2.94,7.64c-1.96,1.83-4.64,2.75-8.05,2.75ZM1043.43,131.39V58.07h17.77v73.32h-17.77Z"/>
    <path class="st1" d="M1085.28,131.39V58.37h15.51l2.26,14.45v58.57h-17.77ZM1135.42,131.39v-42.76c0-5.42-1.31-9.51-3.91-12.27-2.61-2.76-6.02-4.14-10.24-4.14-3.56,0-6.71.98-9.45,2.94s-4.88,4.91-6.44,8.85c-1.56,3.94-2.33,8.85-2.33,14.72h-5.87c0-9.49,1.18-17.38,3.54-23.68s5.7-11,10.01-14.11c4.32-3.11,9.38-4.67,15.21-4.67s11.05,1.34,15.09,4.03c4.04,2.69,7.08,6.46,9.11,11.33s3.05,10.54,3.05,17.01v42.76h-17.77Z"/>
    <path class="st1" d="M1201.21,169.18c-8.38,0-15.54-1.16-21.49-3.46-5.95-2.31-10.5-5.33-13.66-9.07-3.16-3.74-4.74-7.79-4.74-12.16,0-5.17,1.88-9.17,5.65-12.01s8.51-4.25,14.23-4.25l12.95,4.82c-4.92,0-8.71.93-11.37,2.79s-3.99,4.44-3.99,7.75,1.99,6.24,5.98,8.32,9.47,3.12,16.45,3.12c5.07,0,9.46-.75,13.17-2.26,3.71-1.5,6.59-3.46,8.62-5.87,2.03-2.41,3.05-4.97,3.05-7.68,0-1.81-.6-3.29-1.81-4.44-1.2-1.16-3.06-1.73-5.57-1.73h-24.54c-4.92,0-9.4-.79-13.44-2.37-4.04-1.58-7.25-3.71-9.64-6.4-2.38-2.68-3.58-5.68-3.58-9,0-3.06.85-5.71,2.56-7.94,1.71-2.23,4.03-3.95,6.96-5.16,2.94-1.21,6.24-1.81,9.9-1.81l4.52,5.87c-1.46,0-2.85.29-4.18.87-1.33.58-2.42,1.42-3.28,2.52-.85,1.1-1.28,2.48-1.28,4.14,0,2.01.85,3.64,2.56,4.89,1.71,1.26,4.67,1.88,8.88,1.88h24.54c7.78,0,13.89,1.43,18.33,4.29s6.66,7.25,6.66,13.17c0,5.27-1.73,10.28-5.19,15.02s-8.37,8.62-14.72,11.63-13.86,4.52-22.55,4.52h.02ZM1202.11,108.81c-5.77,0-11.05-1.09-15.85-3.27-4.79-2.18-8.62-5.23-11.48-9.15-2.86-3.91-4.29-8.51-4.29-13.78s1.43-10.04,4.29-14,6.69-7.01,11.48-9.15c4.79-2.13,10.07-3.2,15.85-3.2s10.81,1.07,15.58,3.2c4.77,2.13,8.61,5.18,11.52,9.15,2.91,3.96,4.37,8.63,4.37,14s-1.46,9.86-4.37,13.78-6.75,6.96-11.52,9.15c-4.77,2.18-9.96,3.27-15.58,3.27ZM1202.26,96.46c4.62,0,8.08-1.33,10.39-3.99,2.31-2.66,3.46-5.95,3.46-9.86,0-4.22-1.17-7.6-3.5-10.16-2.33-2.56-5.83-3.84-10.5-3.84s-7.98,1.28-10.39,3.84-3.61,5.95-3.61,10.16c0,3.91,1.22,7.2,3.65,9.86s5.93,3.99,10.5,3.99ZM1228.01,68.01l-8.13-4.67c0-4.37,1.02-8.19,3.05-11.48s4.74-5.83,8.13-7.64,7.14-2.71,11.25-2.71l-.9,17.01c-4.37,0-7.69.77-9.97,2.3s-3.42,3.93-3.42,7.19h-.01Z"/>
  </g>
</svg>