<?xml version="1.0" encoding="UTF-8"?>
<svg id="Layer_1" xmlns="http://www.w3.org/2000/svg" version="1.1" viewBox="0 0 96 96">
  <!-- Generator: Adobe Illustrator 29.8.1, SVG Export Plug-In . SVG Version: 2.1.1 Build 2)  -->
  <defs>
    <style>
      .st0 {
        fill: #06204f;
      }
    </style>
  </defs>
  <path class="st0" d="M72.5,21.9c7.85-.83,15.51,4.82,16.15,12.86.63,7.97-.5,16.75,0,24.81,12.35,13.05,4.01,34.77-14.36,34.93-18.3.16-27.14-21.95-14.55-34.93.49-8.06-.63-16.84,0-24.81.52-6.58,6.26-12.17,12.77-12.86ZM73.88,27.61c-4.47.17-8.04,3.86-8.41,8.24-.72,8.35.56,17.71,0,26.17-5.35,5.2-7.75,12.29-3.95,19.23,5.31,9.69,19.61,9.9,25.17.35,4.05-6.97,1.72-14.29-3.76-19.58-.56-8.46.72-17.82,0-26.17-.4-4.61-4.33-8.42-9.05-8.24Z"/>
  <path class="st0" d="M66.56,18.82h-6.13c-2.36-4.47-5.94-8.1-10.67-10.05-13.36-5.49-28.06,4.39-27.9,18.77-11.13-1.33-19.31,10.59-13.04,20.26,1.72,2.65,6.13,5.91,9.35,5.91h35.58v5.72H17.63c-2.67,0-7.95-2.95-9.95-4.77C-3.81,44.3,1.65,25.45,16.43,21.98c1.88-7.37,6.41-13.75,13.15-17.38,13.94-7.5,32.1-.91,36.99,14.22Z"/>
  <polygon class="st0" points="18.86 62.44 10.4 82.89 4.41 82.89 13.27 62.44 18.86 62.44"/>
  <polygon class="st0" points="33.3 62.44 26.22 79.89 20.22 79.89 27.58 62.44 33.3 62.44"/>
  <polygon class="st0" points="48.03 62.44 41.62 77.16 36.03 77.16 42.44 62.44 48.03 62.44"/>
  <path class="st0" d="M77.24,65.94c8.44,2.99,7.05,15.93-1.85,16.92-10.5,1.17-13.8-13.07-4.19-17.05v-23.93c.85-3.62,5.45-3.51,5.96.28l.07,23.79Z"/>
</svg>