<?xml version="1.0" encoding="UTF-8"?>
<svg id="Layer_1-_Karla_Bold_-40" data-name="Layer 1- Karla Bold -40" xmlns="http://www.w3.org/2000/svg" viewBox="0 0 1244.56 175">
  <defs>
    <style>
      .cls-1 {
        fill: #fff;
      }
    </style>
  </defs>
  <path class="cls-1" d="M190,56.48L107.23,2.84c-6.25-3.76-14.07-3.76-20.32,0L6.56,54.93c-5.74,3.31-7.71,10.65-4.39,16.39,1,1.74,2.42,3.19,4.13,4.24l80.54,54.91c6.2,3.93,14.09,4.03,20.38.25l82.78-53.65c5.69-3.26,7.65-10.52,4.39-16.2-1.05-1.83-2.56-3.34-4.39-4.39ZM99,117.93c-1.12.48-2.39.46-3.5-.05L18.5,65.39,95.2,15.63c1.19-.51,2.54-.51,3.73,0l78.91,51.15-78.84,51.15Z"/>
  <path class="cls-1" d="M86.91,44.32l-43.56,28.24,13.65,9.33,38.2-24.78c1.19-.51,2.54-.51,3.73,0l39.38,25.52,14-9.06-45.08-29.25c-6.25-3.75-14.07-3.75-20.32,0Z"/>
  <path class="cls-1" d="M190,98l-8.62-5.59-14,9.06,10.53,6.83-78.98,51.11c-1.12.49-2.38.49-3.5,0L18.43,106.91l10-6.47-13.63-9.37-8.24,5.34c-5.73,3.33-7.67,10.68-4.34,16.41.99,1.71,2.4,3.15,4.08,4.18l80.54,55c6.2,3.94,14.09,4.03,20.38.24l82.78-53.69c5.67-3.28,7.61-10.54,4.33-16.22-1.04-1.8-2.53-3.29-4.33-4.33Z"/>
  <path class="cls-1" d="M291.65,67.22c-4.61-7.33-11.48-11-20.62-11-8.8-.15-17.2,3.67-22.88,10.39-6.22,7.13-9.33,16.41-9.33,27.85s3.26,20.87,9.78,28.3c5.84,6.9,14.46,10.82,23.49,10.68,9.33,0,16.26-4.46,20.77-13.39l2.14,11.3h14.6V28.09h-17.95v39.13ZM286.39,112.23c-6.08,6.51-16.29,6.86-22.8.78-.63-.59-1.21-1.23-1.74-1.91-3.41-4.16-5.12-9.65-5.12-16.48s1.67-12.27,5-16.33c2.99-3.9,7.65-6.16,12.56-6.1,5.02,0,9.04,1.5,12.05,4.51,3.35,3.42,5.24,8.01,5.26,12.8l.05,9.48c.14,4.95-1.76,9.75-5.26,13.25Z"/>
  <path class="cls-1" d="M366.92,56.23c-9.64,0-16.97,4.62-22,13.85V28.08h-17.74v103.27h17.76v-33.87c.2-8.43,1.98-14.77,5.34-19,3.36-4.23,7.4-6.34,12.12-6.32,4.72,0,8.39,1.38,11,4.14s3.91,6.86,3.9,12.3v42.75h17.76v-42.75c0-9.74-2.28-17.57-6.85-23.49-4.57-5.92-11.66-8.88-21.29-8.88Z"/>
  <rect class="cls-1" x="412.07" y="58.04" width="17.76" height="73.31"/>
  <path class="cls-1" d="M421,24.17c-3.51,0-6.21.93-8.12,2.79-1.97,2.02-3.01,4.78-2.86,7.6-.15,2.82.88,5.58,2.86,7.6,1.9,1.86,4.61,2.78,8.12,2.78s6.1-.92,8.06-2.78c2.01-2,3.08-4.77,2.93-7.6.12-2.83-.97-5.58-2.99-7.56-1.95-1.9-4.63-2.83-8-2.83Z"/>
  <path class="cls-1" d="M492.45,92.06h0l-17.31-6.47c-5.92-1.71-8.88-4.32-8.88-7.83,0-2,1.08-3.78,3.24-5.35,2.15-1.55,5.19-2.33,9.1-2.33s6.93.71,9,2.11c2,1.24,3.29,3.37,3.46,5.72h16.71c-.15-6.1-3.05-11.8-7.9-15.51-5.07-4.11-12.3-6.16-21.68-6.17-9.38,0-16.84,1.88-22.39,5.65-5.57,3.76-8.35,8.76-8.36,15,0,9.33,5.92,16.06,17.77,20.17l16,5.71c2.54.68,4.93,1.81,7.08,3.32,1.53,1.25,2.37,3.15,2.26,5.12,0,2.2-1.23,4.14-3.69,5.79-2.82,1.75-6.1,2.62-9.41,2.48-9.93,0-14.99-3.46-15.2-10.38h-16.61c.1,7.73,3.1,13.73,9,18,5.9,4.27,13.73,6.4,23.48,6.39,9.74,0,17.57-2.31,23.48-6.92,5.73-4.42,8.6-9.64,8.59-15.65.16-4.32-1.51-8.5-4.6-11.52-3.06-2.98-7.44-5.42-13.14-7.33Z"/>
  <path class="cls-1" d="M542.13,115.09v-3.61c-.06-2.48.96-4.87,2.78-6.55,1.86-1.75,4.89-3.19,9.11-4.29l15.8-3.92c8.83-2.2,15.22-5.33,19.19-9.4s5.97-9.81,6-17.24c0-7.42-3.06-13.64-9.18-18.66-6.32-5.22-14.4-7.83-24.24-7.83-10.53,0-18.95,2.26-25.28,6.77-6.66,4.82-10.1,11.75-10.31,20.78h19.72c1-8,6.57-12,16.71-12,4.61,0,8.22,1.1,10.84,3.31,2.51,2.01,3.95,5.07,3.91,8.29.05,3.1-1.17,6.08-3.37,8.26-2.26,2.26-6.15,4.09-11.67,5.49l-14.29,3.51c-8.13,2-14.05,5.11-17.76,9.33-3.82,4.51-5.73,10.93-5.73,19.26v14.76h71.2v-16.26h-53.43Z"/>
  <path class="cls-1" d="M730.77,60.28c-4.04-2.69-9.05-4.03-15.02-4.03-4.32,0-8.26.77-11.82,2.3-3.57,1.53-6.67,3.94-9.3,7.23-1.43,1.78-2.68,3.88-3.75,6.27-.06-.14-.1-.28-.16-.42-2.03-4.87-5.07-8.64-9.11-11.33-4.04-2.69-9.07-4.03-15.09-4.03-5.12,0-9.67,1.22-13.63,3.65s-7.15,6.08-9.56,10.95l-1.96-12.5h-15.51v73.04h17.77v-32.67c0-5.87.77-10.78,2.33-14.72s3.7-6.89,6.44-8.85c2.74-1.96,5.89-2.94,9.45-2.94,4.22,0,7.63,1.38,10.24,4.14,2.6,2.76,3.91,6.85,3.91,12.27v42.76h17.77v-33.14c0-8.73,1.53-15.25,4.59-19.57,3.06-4.31,7.25-6.47,12.57-6.47,4.22,0,7.63,1.38,10.24,4.14,2.6,2.76,3.91,6.85,3.91,12.27v42.76h0s17.93-.01,17.93-.01v-42.76c0-6.47-1.03-12.14-3.09-17.01-2.06-4.87-5.11-8.64-9.15-11.33Z"/>
  <path class="cls-1" d="M809.35,60.47c-5.35-2.81-11.21-4.22-17.88-4.22s-12.71,1.41-18.1,4.22c-5.4,2.81-9.68,7.08-12.84,12.8-3.16,5.72-4.74,13.09-4.74,21.68s1.58,15.72,4.74,21.42c3.17,5.7,7.44,9.98,12.84,12.84,5.39,2.86,11.42,4.29,18.1,4.29s12.54-1.43,17.88-4.29c5.34-2.87,9.6-7.14,12.76-12.84,3.16-5.7,4.74-12.69,4.74-21.42s-1.58-15.96-4.74-21.68c-3.16-5.72-7.42-9.99-12.76-12.8ZM806.71,107.67c-1.58,3.42-3.74,5.99-6.47,7.72s-5.86,2.6-9.37,2.6h0c-5.27.01-9.44-1.92-12.53-5.79-3.09-3.86-4.63-9.61-4.63-17.24,0-5.17.79-9.49,2.37-12.95,1.58-3.46,3.75-6.06,6.51-7.79,2.75-1.73,5.92-2.6,9.48-2.6,5.27,0,9.42,1.96,12.46,5.87,3.03,3.91,4.55,9.73,4.55,17.46,0,5.07-.79,9.31-2.37,12.72Z"/>
  <path class="cls-1" d="M888.43,67.01c-1.82-2.83-4.05-5.12-6.69-6.85-3.97-2.59-8.66-3.88-14.08-3.88-5.92,0-11.31,1.56-16.15,4.7-4.84,3.13-8.7,7.57-11.59,13.32-2.89,5.74-4.33,12.38-4.33,20.21s1.49,14.66,4.48,20.51c2.98,5.84,7,10.38,12.04,13.62s10.63,4.86,16.75,4.86h0s.02.01.02.01c4.56,0,8.76-1.28,12.57-3.84,3.32-2.23,6.06-5.42,8.22-9.57l2.07,11.29h14.61V28.11h-17.92v38.9ZM879.68,115.11c-2.58,1.54-5.28,2.3-8.09,2.3-3.47,0-6.57-.95-9.3-2.86-2.74-1.91-4.89-4.57-6.44-7.98-1.55-3.41-2.33-7.57-2.33-12.04s.77-8.37,2.33-11.71c1.56-3.34,3.7-5.93,6.44-7.79,2.74-1.86,5.89-2.79,9.45-2.79,2.96,0,5.7.72,8.24,2.15,2.53,1.43,4.57,3.49,6.13,6.17,1.5,2.6,2.27,5.72,2.32,9.36v9.81c-.1,3.37-.91,6.35-2.43,8.93-1.63,2.76-3.74,4.91-6.32,6.44Z"/>
  <path class="cls-1" d="M986.13,82.76c-.9-5.01-2.64-9.53-5.23-13.51s-6-7.15-10.24-9.48c-4.24-2.33-9.27-3.5-15.09-3.5-6.27,0-11.99,1.53-17.16,4.59s-9.29,7.48-12.38,13.25-4.63,12.92-4.63,20.7,1.56,14.56,4.67,20.36c3.11,5.79,7.25,10.3,12.42,13.51,5.17,3.21,10.87,4.82,17.09,4.82h0c5.61,0,10.63-1.01,15.04-3.04,4.41-2.03,8.01-4.84,10.8-8.43,2.79-3.59,4.56-7.74,5.31-12.46h-17.92c-.66,3.22-2.16,5.62-4.52,7.23s-5.27,2.41-8.73,2.41c-3.71,0-6.79-.9-9.22-2.71-2.44-1.8-4.27-4.29-5.5-7.45-1.22-3.13-1.82-6.72-1.84-10.78h47.28c.8-5.32.75-10.49-.15-15.51ZM946.68,73.13c2.51-1.81,5.57-2.71,9.18-2.71,3.02,0,5.49.61,7.42,1.84,1.93,1.24,3.43,2.85,4.48,4.86,1.06,2,1.77,4.21,2.15,6.62.26,1.64.38,3.27.39,4.89h-31.21c.22-2.96.83-5.67,1.87-8.12,1.3-3.11,3.21-5.57,5.72-7.38Z"/>
  <path class="cls-1" d="M955.58,133.51h0s-.01,0-.02,0h.02Z"/>
  <rect class="cls-1" x="1002.1" y="28.11" width="17.77" height="103.28"/>
  <path class="cls-1" d="M1052.31,24.19c-3.46,0-6.16.94-8.09,2.82-1.93,1.89-2.9,4.31-2.9,7.57s.97,5.81,2.9,7.64c1.93,1.83,4.63,2.75,8.09,2.75s6.09-.92,8.05-2.75c1.96-1.83,2.94-4.47,2.94-7.64s-.98-5.69-2.94-7.57c-1.95-1.88-4.59-2.82-8.05-2.82Z"/>
  <rect class="cls-1" x="1043.43" y="58.07" width="17.77" height="73.32"/>
  <path class="cls-1" d="M1141.03,60.3c-4.04-2.69-9.26-4.03-15.09-4.03s-10.89,1.56-15.21,4.67c-3.22,2.32-5.9,5.54-8.03,9.64l-1.91-12.21h-15.51v73.02h17.77v-32.66h0c0-5.87.77-10.78,2.33-14.72,1.56-3.94,3.7-6.89,6.44-8.85,2.74-1.96,5.89-2.94,9.45-2.94,4.22,0,7.63,1.38,10.24,4.14,2.6,2.76,3.91,6.85,3.91,12.27v42.76h0s17.77.01,17.77.01v-42.76c0-6.47-1.02-12.14-3.05-17.01s-5.07-8.64-9.11-11.33Z"/>
  <path class="cls-1" d="M1236.99,124.83c-4.44-2.86-10.55-4.29-18.33-4.29h-24.54c-4.21,0-7.17-.62-8.88-1.88-1.71-1.25-2.56-2.88-2.56-4.89,0-1.66.43-3.04,1.28-4.14.86-1.1,1.95-1.94,3.28-2.52.52-.23,1.06-.4,1.6-.54,4.1,1.48,8.52,2.24,13.27,2.24,5.62,0,10.81-1.09,15.58-3.27,4.77-2.19,8.61-5.23,11.52-9.15s4.37-8.41,4.37-13.78-1.46-10.04-4.37-14c-.37-.5-.75-.99-1.15-1.46.19-2.82,1.31-4.94,3.38-6.33,2.28-1.53,5.6-2.3,9.97-2.3l.9-17.01c-4.11,0-7.86.9-11.25,2.71s-6.1,4.35-8.13,7.64c-1.6,2.59-2.56,5.52-2.9,8.77-.76-.41-1.53-.81-2.34-1.17-4.77-2.13-9.8-3.2-15.58-3.2s-11.06,1.07-15.85,3.2c-4.79,2.14-8.62,5.19-11.48,9.15-2.86,3.96-4.29,8.73-4.29,14s1.43,9.87,4.29,13.78c1.34,1.84,2.91,3.49,4.69,4.95-.85.24-1.67.52-2.47.84-2.93,1.21-5.25,2.93-6.96,5.16-1.71,2.23-2.56,4.88-2.56,7.94,0,3.32,1.2,6.32,3.58,9,1.47,1.66,3.26,3.1,5.35,4.33-3.63.59-6.78,1.86-9.44,3.87-3.77,2.84-5.65,6.84-5.65,12.01,0,4.37,1.58,8.42,4.74,12.16,3.16,3.74,7.71,6.76,13.66,9.07,5.95,2.3,13.11,3.46,21.49,3.46h0s-.02,0-.02,0c8.69,0,16.2-1.51,22.55-4.52s11.26-6.89,14.72-11.63c3.46-4.74,5.19-9.75,5.19-15.02,0-5.92-2.22-10.31-6.66-13.17ZM1191.72,72.45c2.41-2.56,5.72-3.84,10.39-3.84s8.17,1.28,10.5,3.84,3.5,5.94,3.5,10.16c0,3.91-1.15,7.2-3.46,9.86-2.31,2.66-5.77,3.99-10.39,3.99s-8.07-1.33-10.5-3.99c-2.43-2.66-3.65-5.95-3.65-9.86,0-4.21,1.2-7.6,3.61-10.16ZM1223.01,146.9c-2.03,2.41-4.91,4.37-8.62,5.87-3.71,1.51-8.1,2.26-13.17,2.26-6.98,0-12.46-1.04-16.45-3.12-3.99-2.08-5.98-5.01-5.98-8.32s1.33-5.89,3.99-7.75c2.66-1.86,6.45-2.79,11.37-2.79h24.53c2.51,0,4.37.57,5.57,1.73,1.21,1.15,1.81,2.63,1.81,4.44,0,2.71-1.02,5.27-3.05,7.68Z"/>
</svg>